<?xml version="1.0" standalone="no"?><!DOCTYPE svg PUBLIC "-//W3C//DTD SVG 1.1//EN" "http://www.w3.org/Graphics/SVG/1.1/DTD/svg11.dtd"><svg t="1673488195730" class="icon" viewBox="0 0 1026 1024" version="1.1" xmlns="http://www.w3.org/2000/svg" p-id="2727" xmlns:xlink="http://www.w3.org/1999/xlink" width="200.390625" height="200"><path d="M2.438 0h975.238v975.238H2.438z" fill="#2FC2B0" fill-opacity="0" p-id="2728"></path><path d="M266.386 774.095c0 20.675 18.725 37.547 41.594 37.547h41.643V943.25c0 31.208 27.843 56.369 62.415 56.369 34.524 0 62.415-25.21 62.415-56.369V811.69h83.188v131.56c0 31.208 27.892 56.369 62.415 56.369 34.524 0 62.416-25.21 62.416-56.369V811.69h41.594c22.918 0 41.593-16.92 41.593-37.546V398.19H266.386v375.856zM162.377 398.238c-34.523 0-62.415 25.21-62.415 56.37v263.118c0 31.208 27.892 56.37 62.415 56.37 34.524 0 62.415-25.162 62.415-56.37V454.607c0-31.207-27.891-56.369-62.415-56.369z m707.292 0c-34.524 0-62.416 25.21-62.416 56.37v263.118c0 31.208 27.892 56.37 62.416 56.37 34.523 0 62.415-25.162 62.415-56.37V454.607c0-31.207-27.892-56.369-62.415-56.369z m-206.75-219.477l54.271-49.054a17.457 17.457 0 0 0 0-26.478 22.333 22.333 0 0 0-29.306 0l-61.586 55.393a269.897 269.897 0 0 0-110.25-23.454c-39.986 0-77.386 8.63-110.885 23.65l-61.782-55.784a22.333 22.333 0 0 0-29.354 0 17.457 17.457 0 0 0 0 26.478l54.515 49.25c-61.78 41.154-102.156 107.275-102.156 181.881h499.322c0-74.752-40.618-140.922-102.79-181.882zM432.81 285.501h-41.594v-37.547h41.594v37.547z m208.018 0h-41.594v-37.547h41.594v37.547z" fill="#2FC2B0" p-id="2729"></path></svg>