<?xml version="1.0" standalone="no"?><!DOCTYPE svg PUBLIC "-//W3C//DTD SVG 1.1//EN" "http://www.w3.org/Graphics/SVG/1.1/DTD/svg11.dtd"><svg t="1729315128202" class="icon" viewBox="0 0 1031 1024" version="1.1" xmlns="http://www.w3.org/2000/svg" p-id="6120" xmlns:xlink="http://www.w3.org/1999/xlink" width="201.3671875" height="200"><path d="M946.9 765.9H84.7C38.1 765.9 0 727.8 0 681.2V127.4c0-46.6 38.1-84.7 84.7-84.7h862.2c46.6 0 84.7 38.1 84.7 84.7v553.8c0 46.6-38.1 84.7-84.7 84.7z" fill="#E3E3E3" p-id="6121"></path><path d="M946.9 991.5H84.7C38.1 991.5 0 953.4 0 906.8V268.4h1031.5v638.5c0.1 46.5-38 84.6-84.6 84.6z" fill="#475762" p-id="6122"></path><path d="M163.304 234.063a22.17 22.17 0 1 0 44.34 0 22.17 22.17 0 1 0-44.34 0zM226.647 234.063a22.17 22.17 0 1 0 44.34 0 22.17 22.17 0 1 0-44.34 0zM289.99 234.063a22.17 22.17 0 1 0 44.34 0 22.17 22.17 0 1 0-44.34 0zM233.754 409.879H200.46c-10.042 0-18.23-8.189-18.23-18.23 0-10.043 8.188-18.231 18.23-18.231h33.294c10.042 0 18.23 8.188 18.23 18.23s-8.188 18.23-18.23 18.23z" fill="#CACACA" p-id="6123"></path><path d="M309.7 379.8H239c-13 0-23.6-10.6-23.6-23.6 0-13 10.6-23.6 23.6-23.6h70.7c13 0 23.6 10.6 23.6 23.6 0 13-10.6 23.6-23.6 23.6z m22.6 89.2H298c-13 0-23.6-10.6-23.6-23.6 0-13 10.6-23.6 23.6-23.6h34.3c13 0 23.6 10.6 23.6 23.6 0 13-10.7 23.6-23.6 23.6z m52.3 89.2h-32.8c-13 0-23.6-10.6-23.6-23.6 0-13 10.6-23.6 23.6-23.6h32.8c13 0 23.6 10.6 23.6 23.6 0 13-10.7 23.6-23.6 23.6z" fill="#F26397" p-id="6124"></path><path d="M597.359 547.688H480.097c-10.042 0-18.23-8.188-18.23-18.23s8.188-18.23 18.23-18.23h117.262c10.042 0 18.23 8.188 18.23 18.23-0.077 10.042-8.265 18.23-18.23 18.23z" fill="#6ACEB1" p-id="6125"></path><path d="M785.2 558.2h-63.6c-13 0-23.6-10.6-23.6-23.6 0-13 10.6-23.6 23.6-23.6h63.6c13 0 23.6 10.6 23.6 23.6 0 13-10.6 23.6-23.6 23.6z m139.5 82H777c-13 0-23.6-10.6-23.6-23.6 0-13 10.6-23.6 23.6-23.6h147.7c13 0 23.6 10.6 23.6 23.6 0 12.9-10.7 23.6-23.6 23.6zM775 736.6h-70.7c-13 0-23.6-10.6-23.6-23.6 0-13 10.6-23.6 23.6-23.6H775c13 0 23.6 10.6 23.6 23.6 0 13-10.7 23.6-23.6 23.6z m-81.8 89.2h-70.7c-13 0-23.6-10.6-23.6-23.6 0-13 10.6-23.6 23.6-23.6h70.7c13 0 23.6 10.6 23.6 23.6 0 13-10.6 23.6-23.6 23.6z m231.5-267.6h-63.6c-13 0-23.6-10.6-23.6-23.6 0-13 10.6-23.6 23.6-23.6h63.6c13 0 23.6 10.6 23.6 23.6 0 13-10.7 23.6-23.6 23.6zM917 736.6h-20.5c-13 0-23.6-10.6-23.6-23.6 0-13 10.6-23.6 23.6-23.6H917c13 0 23.6 10.6 23.6 23.6 0 13-10.6 23.6-23.6 23.6z" fill="#5F7786" p-id="6126"></path><path d="M575.3 469H423.5c-13 0-23.6-10.6-23.6-23.6 0-13 10.6-23.6 23.6-23.6h151.8c13 0 23.6 10.6 23.6 23.6 0 13-10.6 23.6-23.6 23.6z m47.2 171.2H470.7c-13 0-23.6-10.6-23.6-23.6 0-13 10.6-23.6 23.6-23.6h151.8c13 0 23.6 10.6 23.6 23.6-0.1 12.9-10.7 23.6-23.6 23.6z m0 96.4H470.7c-13 0-23.6-10.6-23.6-23.6 0-13 10.6-23.6 23.6-23.6h151.8c13 0 23.6 10.6 23.6 23.6-0.1 13-10.7 23.6-23.6 23.6z m-114.9 89.2h-36.9c-13 0-23.6-10.6-23.6-23.6 0-13 10.6-23.6 23.6-23.6h36.9c13 0 23.6 10.6 23.6 23.6 0 13-10.6 23.6-23.6 23.6z" fill="#6ACEB1" p-id="6127"></path><path d="M418.685 616.593h-26.496c-10.042 0-18.23-8.188-18.23-18.23s8.188-18.23 18.23-18.23h26.496c10.042 0 18.23 8.188 18.23 18.23s-8.188 18.23-18.23 18.23z m0 68.905h-26.496c-10.042 0-18.23-8.188-18.23-18.23s8.188-18.23 18.23-18.23h26.496c10.042 0 18.23 8.188 18.23 18.23s-8.188 18.23-18.23 18.23z m-39.937 68.905H346.69c-10.042 0-18.23-8.188-18.23-18.23 0-10.043 8.188-18.23 18.23-18.23h32.058c10.042 0 18.23 8.187 18.23 18.23-0.077 10.042-8.265 18.23-18.23 18.23z m-26.96 64.965h-54.614c-10.042 0-18.23-8.188-18.23-18.23s8.188-18.23 18.23-18.23h54.614c10.043 0 18.23 8.188 18.23 18.23s-8.187 18.23-18.23 18.23z" fill="#F26397" p-id="6128"></path><path d="M151.8 469h-43.1c-13 0-23.6-10.6-23.6-23.6 0-13 10.6-23.6 23.6-23.6h43.1c13 0 23.6 10.6 23.6 23.6 0 13-10.6 23.6-23.6 23.6z m0 89.2h-43.1c-13 0-23.6-10.6-23.6-23.6 0-13 10.6-23.6 23.6-23.6h43.1c13 0 23.6 10.6 23.6 23.6 0 13-10.6 23.6-23.6 23.6z m0 89.2h-43.1c-13 0-23.6-10.6-23.6-23.6 0-13 10.6-23.6 23.6-23.6h43.1c13 0 23.6 10.6 23.6 23.6 0 13-10.6 23.6-23.6 23.6z m0 89.2h-43.1c-13 0-23.6-10.6-23.6-23.6 0-13 10.6-23.6 23.6-23.6h43.1c13 0 23.6 10.6 23.6 23.6 0 13-10.6 23.6-23.6 23.6z m0 89.2h-43.1c-13 0-23.6-10.6-23.6-23.6 0-13 10.6-23.6 23.6-23.6h43.1c13 0 23.6 10.6 23.6 23.6 0 13-10.6 23.6-23.6 23.6z m0 89.2h-43.1c-13 0-23.6-10.6-23.6-23.6 0-13 10.6-23.6 23.6-23.6h43.1c13 0 23.6 10.6 23.6 23.6 0 13-10.6 23.6-23.6 23.6z" fill="#CACACA" p-id="6129"></path></svg>